P2
4 120
255
0 0 0 0 0 0 0 0 0 0 0 0 0 0 0 0 0 0 0 0 0 0 0 0 0 0 0 0 0 0 0 0 0 0 0 0 0 0 0 0 0 0 0 0 0 0 0 0 0 0 0 0 0 0 0 0 0 0 0 0 0 0 0 0 0 0 0 0 0 0 0 0 0 0 0 0 0 0 0 0 0 0 0 0 0 0 0 0 0 0 0 0 0 0 0 0 0 0 0 0 0 0 0 0 0 0 0 0 0 0 0 0 0 0 0 0 0 0 0 0 0 255 255 0 0 255 247 0 0 255 238 0 0 255 230 0 0 255 221 0 0 255 213 0 0 255 204 0 0 255 196 0 0 255 187 0 0 255 179 0 0 255 170 0 0 255 162 0 0 255 153 0 0 255 145 0 0 255 136 0 0 255 128 0 0 255 119 0 0 255 111 0 0 255 102 0 0 255 94 0 0 255 85 0 0 255 77 0 0 255 68 0 0 255 60 0 0 255 51 0 0 255 43 0 0 255 34 0 0 255 26 0 0 255 17 0 0 255 9 0 0 255 0 0 0 255 9 0 0 255 17 0 0 255 26 0 0 255 34 0 0 255 43 0 0 255 51 0 0 255 60 0 0 255 68 0 0 255 77 0 0 255 85 0 0 255 94 0 0 255 102 0 0 255 111 0 0 255 119 0 0 255 128 0 0 255 136 0 0 255 145 0 0 255 153 0 0 255 162 0 0 255 170 0 0 255 179 0 0 255 187 0 0 255 196 0 0 255 204 0 0 255 213 0 0 255 221 0 0 255 230 0 0 255 238 0 0 255 247 0 0 0 0 0 0 0 0 0 0 0 0 0 0 0 0 0 0 0 0 0 0 0 0 0 0 0 0 0 0 0 0 0 0 0 0 0 0 0 0 0 0 0 0 0 0 0 0 0 0 0 0 0 0 0 0 0 0 0 0 0 0 0 0 0 0 0 0 0 0 0 0 0 0 0 0 0 0 0 0 0 0 0 0 0 0 0 0 0 0 0 0 0 0 0 0 0 0 0 0 0 0 0 0 0 0 0 0 0 0 0 0 0 0 0 0 0 0 0 0 0 